<?xml version="1.0" encoding="UTF-8" standalone="no"?>
<!-- Created with Inkscape (http://www.inkscape.org/) -->

<svg
   xmlns:dc="http://purl.org/dc/elements/1.1/"
   xmlns:cc="http://creativecommons.org/ns#"
   xmlns:rdf="http://www.w3.org/1999/02/22-rdf-syntax-ns#"
   xmlns:svg="http://www.w3.org/2000/svg"
   xmlns="http://www.w3.org/2000/svg"
   xmlns:sodipodi="http://sodipodi.sourceforge.net/DTD/sodipodi-0.dtd"
   xmlns:inkscape="http://www.inkscape.org/namespaces/inkscape"
   width="3995.4563"
   height="1964.0885"
   viewBox="0 0 1057.1312 519.66507"
   version="1.1"
   id="svg2540"
   inkscape:version="0.92.3 (2405546, 2018-03-11)"
   sodipodi:docname="chart-part-svg2.svg">
  <defs
     id="defs2534" />
  <sodipodi:namedview
     id="base"
     pagecolor="#ffffff"
     bordercolor="#666666"
     borderopacity="1.0"
     inkscape:pageopacity="0.0"
     inkscape:pageshadow="2"
     inkscape:zoom="0.49497475"
     inkscape:cx="1606.3809"
     inkscape:cy="755.57497"
     inkscape:document-units="px"
     inkscape:current-layer="layer1"
     showgrid="false"
     fit-margin-top="10"
     fit-margin-left="10"
     fit-margin-right="10"
     fit-margin-bottom="10"
     units="px"
     inkscape:window-width="3840"
     inkscape:window-height="2035"
     inkscape:window-x="1423"
     inkscape:window-y="-13"
     inkscape:window-maximized="1" />
  <metadata
     id="metadata2537">
    <rdf:RDF>
      <cc:Work
         rdf:about="">
        <dc:format>image/svg+xml</dc:format>
        <dc:type
           rdf:resource="http://purl.org/dc/dcmitype/StillImage" />
        <dc:title></dc:title>
      </cc:Work>
    </rdf:RDF>
  </metadata>
  <g
     inkscape:label="Layer 1"
     inkscape:groupmode="layer"
     id="layer1"
     transform="translate(512.18477,80.882833)">
    <g
       id="g10764">
      <g
         transform="translate(-236.4619,79.374999)"
         id="g11042">
        <path
           style="opacity:1;fill:#a7f889;fill-opacity:1;stroke:none;stroke-width:0.10481989;stroke-linecap:round;stroke-miterlimit:4;stroke-dasharray:none;stroke-opacity:1"
           d="m -42.144566,27.328644 a 48.318145,49.196279 1.4537527 0 0 -67.821484,5.5295 l 36.609984,32.0548 z m -31.21156,37.5844 -31.458094,37.360696 a 48.318145,49.196279 1.4537527 0 0 67.860244,-5.043894 z m -31.458094,37.360696 a 48.318145,49.196279 1.4537527 0 1 -0.073,-0.0601 48.318145,49.196279 1.4537527 0 0 0.0684,0.0657 z m -0.073,-0.0601 a 48.318145,49.196279 1.4537527 0 1 -1.77918,-1.71875 48.318145,49.196279 1.4537527 0 0 1.66012,1.62016 48.318145,49.196279 1.4537527 0 0 0.12026,0.0972 z m -1.77918,-1.71875 a 48.318145,49.196279 1.4537527 0 1 -1.73811,-1.694174 48.318145,49.196279 1.4537527 0 0 1.73811,1.694174 z m -1.73811,-1.694174 a 48.318145,49.196279 1.4537527 0 1 -1.58736,-1.87281 48.318145,49.196279 1.4537527 0 0 1.58736,1.87281 z m -1.58736,-1.87281 a 48.318145,49.196279 1.4537527 0 1 -1.55264,-1.84912 48.318145,49.196279 1.4537527 0 0 1.55264,1.84912 z m -1.55264,-1.84912 a 48.318145,49.196279 1.4537527 0 1 -1.49163,-2.16351 48.318145,49.196279 1.4537527 0 0 1.49163,2.16351 z m -1.49163,-2.16351 a 48.318145,49.196279 1.4537527 0 1 -1.26798,-1.86002 48.318145,49.196279 1.4537527 0 0 1.26798,1.86002 z m -1.26798,-1.86002 a 48.318145,49.196279 1.4537527 0 1 -1.3068,-2.3654 48.318145,49.196279 1.4537527 0 0 1.3068,2.3654 z m -1.3068,-2.3654 a 48.318145,49.196279 1.4537527 0 1 -1.0482,-1.92355 48.318145,49.196279 1.4537527 0 0 1.0482,1.92355 z m -1.0482,-1.92355 a 48.318145,49.196279 1.4537527 0 1 -1.03184,-2.40678 48.318145,49.196279 1.4537527 0 0 1.03184,2.40678 z m -1.03184,-2.40678 a 48.318145,49.196279 1.4537527 0 1 -0.89327,-2.11295 48.318145,49.196279 1.4537527 0 0 0.89327,2.11295 z m -0.89327,-2.11295 a 48.318145,49.196279 1.4537527 0 1 -0.76801,-2.42131 48.318145,49.196279 1.4537527 0 0 0.76801,2.42131 z m -0.76801,-2.42131 a 48.318145,49.196279 1.4537527 0 1 -0.70194,-2.25787 48.318145,49.196279 1.4537527 0 0 0.70194,2.25787 z m -0.70194,-2.25787 a 48.318145,49.196279 1.4537527 0 1 -0.52124,-2.46334 48.318145,49.196279 1.4537527 0 0 0.52124,2.46334 z m -0.52124,-2.46334 a 48.318145,49.196279 1.4537527 0 1 -0.48296,-2.348862 48.318145,49.196279 1.4537527 0 0 0.48296,2.348862 z m -0.48296,-2.348862 a 48.318145,49.196279 1.4537527 0 1 -0.2563,-2.32563 48.318145,49.196279 1.4537527 0 0 0.2563,2.32563 z m -0.2563,-2.32563 a 48.318145,49.196279 1.4537527 0 1 -0.27186,-2.58112 48.318145,49.196279 1.4537527 0 0 0.27186,2.58112 z m -0.27186,-2.58112 a 48.318145,49.196279 1.4537527 0 1 -0.0254,-2.26225 48.318145,49.196279 1.4537527 0 0 0.0254,2.26225 z m -0.0254,-2.26225 a 48.318145,49.196279 1.4537527 0 1 -0.017,-2.63551 48.318145,49.196279 1.4537527 0 0 0.017,2.63551 z m -0.017,-2.63551 a 48.318145,49.196279 1.4537527 0 1 0.21592,-2.48245 48.318145,49.196279 1.4537527 0 0 -0.21592,2.48245 z m 0.21592,-2.48245 a 48.318145,49.196279 1.4537527 0 1 0.22168,-2.41372 48.318145,49.196279 1.4537527 0 0 -0.22168,2.41372 z m 0.22168,-2.41372 a 48.318145,49.196279 1.4537527 0 1 0.45648,-2.44198 48.318145,49.196279 1.4537527 0 0 -0.45648,2.44198 z m 0.45648,-2.44198 a 48.318145,49.196279 1.4537527 0 1 0.45984,-2.39013 48.318145,49.196279 1.4537527 0 0 -0.45984,2.39013 z m 0.45984,-2.39013 a 48.318145,49.196279 1.4537527 0 1 0.67583,-2.32049 48.318145,49.196279 1.4537527 0 0 -0.67583,2.32049 z m 0.67583,-2.32049 a 48.318145,49.196279 1.4537527 0 1 0.71046,-2.39458 48.318145,49.196279 1.4537527 0 0 -0.71046,2.39458 z m 0.71046,-2.39458 a 48.318145,49.196279 1.4537527 0 1 0.88669,-2.20637 48.318145,49.196279 1.4537527 0 0 -0.88669,2.20637 z m 0.88669,-2.20637 a 48.318145,49.196279 1.4537527 0 1 0.95337,-2.33998 48.318145,49.196279 1.4537527 0 0 -0.95337,2.33998 z m 0.95337,-2.33998 a 48.318145,49.196279 1.4537527 0 1 1.10167,-2.11076 48.318145,49.196279 1.4537527 0 0 -1.10167,2.11076 z m 1.10167,-2.11076 a 48.318145,49.196279 1.4537527 0 1 1.17464,-2.22644 48.318145,49.196279 1.4537527 0 0 -1.17464,2.22644 z m 1.17464,-2.22644 a 48.318145,49.196279 1.4537527 0 1 1.38306,-2.1122 48.318145,49.196279 1.4537527 0 0 -1.38306,2.1122 z m 1.38306,-2.1122 a 48.318145,49.196279 1.4537527 0 1 1.31366,-1.98352 48.318145,49.196279 1.4537527 0 0 -1.31366,1.98352 z m 1.31366,-1.98352 a 48.318145,49.196279 1.4537527 0 1 1.14453,-1.46756 48.318145,49.196279 1.4537527 0 0 -1.14453,1.46756 z m 1.14453,-1.46756 a 48.318145,49.196279 1.4537527 0 1 0.852,-1.07841 48.318145,49.196279 1.4537527 0 0 -0.0561,0.0601 48.318145,49.196279 1.4537527 0 0 -0.79587,1.01833 z m 0.852,-1.07841 a 48.318145,49.196279 1.4537527 0 1 0.11431,-0.12298 l -0.0101,-0.009 a 48.318145,49.196279 1.4537527 0 0 -0.10359,0.13209 z"
           id="path5689"
           inkscape:connector-curvature="0" />
        <path
           style="opacity:1;fill:#89c4f8;fill-opacity:1;stroke:none;stroke-width:0.10481989;stroke-linecap:round;stroke-miterlimit:4;stroke-dasharray:none;stroke-opacity:1"
           d="m -73.356126,64.913044 -36.608534,-32.05633 a 48.318145,49.196279 1.4537527 0 0 -0.11456,0.12296 48.318145,49.196279 1.4537527 0 0 -0.85196,1.0784 48.318145,49.196279 1.4537527 0 0 -1.1445,1.4675 48.318145,49.196279 1.4537527 0 0 -1.30208,1.96465 48.318145,49.196279 1.4537527 0 0 -1.39709,2.13391 48.318145,49.196279 1.4537527 0 0 -1.17452,2.2265 48.318145,49.196279 1.4537527 0 0 -1.09712,2.10252 48.318145,49.196279 1.4537527 0 0 -0.97763,2.39906 48.318145,49.196279 1.4537527 0 0 -0.86478,2.15274 48.318145,49.196279 1.4537527 0 0 -0.71045,2.39452 48.318145,49.196279 1.4537527 0 0 -0.67582,2.32047 48.318145,49.196279 1.4537527 0 0 -0.45998,2.39013 48.318145,49.196279 1.4537527 0 0 -0.45644,2.44199 48.318145,49.196279 1.4537527 0 0 -0.22169,2.41376 48.318145,49.196279 1.4537527 0 0 -0.21589,2.48236 48.318145,49.196279 1.4537527 0 0 0.0158,2.48318 48.318145,49.196279 1.4537527 0 0 0.0275,2.42759 48.318145,49.196279 1.4537527 0 0 0.27054,2.57995 48.318145,49.196279 1.4537527 0 0 0.2546,2.30231 48.318145,49.196279 1.4537527 0 0 0.51164,2.491322 48.318145,49.196279 1.4537527 0 0 0.49165,2.3274 48.318145,49.196279 1.4537527 0 0 0.72147,2.31912 48.318145,49.196279 1.4537527 0 0 0.74888,2.36529 48.318145,49.196279 1.4537527 0 0 0.95835,2.26337 48.318145,49.196279 1.4537527 0 0 0.96061,2.24114 48.318145,49.196279 1.4537527 0 0 1.21575,2.22839 48.318145,49.196279 1.4537527 0 0 1.13535,2.05946 48.318145,49.196279 1.4537527 0 0 1.38704,2.03409 48.318145,49.196279 1.4537527 0 0 1.38508,2.00556 48.318145,49.196279 1.4537527 0 0 1.54026,1.83573 48.318145,49.196279 1.4537527 0 0 1.59865,1.88756 48.318145,49.196279 1.4537527 0 0 1.87767,1.830324 48.318145,49.196279 1.4537527 0 0 1.62303,1.56553 48.318145,49.196279 1.4537527 0 0 0.0908,0.0761 z"
           id="path5691"
           inkscape:connector-curvature="0" />
      </g>
      <g
         transform="translate(-236.4619,79.374999)"
         id="g11048">
        <rect
           y="31.452768"
           x="-3.4229429"
           height="82.650459"
           width="28.276413"
           id="rect5715"
           style="opacity:1;fill:#89c4f8;fill-opacity:1;stroke:none;stroke-width:0.10481989;stroke-linecap:round;stroke-miterlimit:4;stroke-dasharray:none;stroke-opacity:1" />
        <rect
           y="31.452768"
           x="-34.974823"
           height="82.650459"
           width="28.276413"
           id="rect5717"
           style="opacity:1;fill:#cc94f8;fill-opacity:0.5098038;stroke:none;stroke-width:0.10481989;stroke-linecap:round;stroke-miterlimit:4;stroke-dasharray:none;stroke-opacity:1" />
        <rect
           style="opacity:1;fill:#f889a7;fill-opacity:1;stroke:none;stroke-width:0.10481989;stroke-linecap:round;stroke-miterlimit:4;stroke-dasharray:none;stroke-opacity:1"
           id="rect5719"
           width="28.276413"
           height="82.650459"
           x="-34.974823"
           y="31.452768" />
        <rect
           style="opacity:1;fill:#a7f889;fill-opacity:1;stroke:none;stroke-width:0.10481989;stroke-linecap:round;stroke-miterlimit:4;stroke-dasharray:none;stroke-opacity:1"
           id="rect5721"
           width="61.560448"
           height="16.130798"
           x="-34.995148"
           y="69.163673" />
      </g>
      <g
         transform="translate(-236.4619,79.374999)"
         id="g11058">
        <rect
           y="31.452768"
           x="114.97147"
           height="82.650459"
           width="28.276413"
           id="rect5723"
           style="opacity:1;fill:#f889a7;fill-opacity:1;stroke:none;stroke-width:0.10481989;stroke-linecap:round;stroke-miterlimit:4;stroke-dasharray:none;stroke-opacity:1" />
        <path
           d="M 80.373022,144.53816 A 24.025923,23.55522 0 0 1 56.429098,168.09324 24.025923,23.55522 0 0 1 32.321736,144.69895 l 24.025363,-0.16079 z"
           sodipodi:end="3.1347668"
           sodipodi:start="0"
           sodipodi:ry="23.55522"
           sodipodi:rx="24.025923"
           sodipodi:cy="144.53816"
           sodipodi:cx="56.347099"
           sodipodi:type="arc"
           id="path5725"
           style="opacity:1;fill:#a7f889;fill-opacity:1;stroke:none;stroke-width:0.10481988;stroke-linecap:round;stroke-miterlimit:4;stroke-dasharray:none;stroke-opacity:1"
           transform="matrix(0.00584891,0.99998289,0.99998199,-0.00600082,0,0)" />
        <path
           inkscape:connector-curvature="0"
           id="path5727"
           d="m 115.33236,55.466764 -0.36056,58.636406 h 58.98691 z"
           style="fill:#89c4f8;fill-opacity:1;stroke:none;stroke-width:0.07000432px;stroke-linecap:butt;stroke-linejoin:miter;stroke-opacity:1" />
      </g>
      <g
         transform="translate(-236.4619,79.374999)"
         id="g11053">
        <path
           style="fill:#89c4f8;fill-opacity:1;stroke:none;stroke-width:0.07000432px;stroke-linecap:butt;stroke-linejoin:miter;stroke-opacity:1"
           d="m 70.395034,29.057384 -21.39768,42.44119 42.86723,0.0818 z"
           id="path5733"
           inkscape:connector-curvature="0" />
        <path
           inkscape:connector-curvature="0"
           id="path5735"
           d="m 48.997354,71.498574 -21.39767,42.441186 42.86723,0.0818 z"
           style="fill:#f889a7;fill-opacity:1;stroke:none;stroke-width:0.07000432px;stroke-linecap:butt;stroke-linejoin:miter;stroke-opacity:1" />
        <path
           style="fill:#f9b289;fill-opacity:0.94117647;stroke:none;stroke-width:0.07000432px;stroke-linecap:butt;stroke-linejoin:miter;stroke-opacity:1"
           d="m 91.864584,71.580344 -21.39767,42.441186 42.867246,0.0818 z"
           id="path5737"
           inkscape:connector-curvature="0" />
      </g>
      <g
         transform="translate(-236.4619,79.374999)"
         id="g11062">
        <rect
           style="opacity:1;fill:#f889a7;fill-opacity:1;stroke:none;stroke-width:0.10481989;stroke-linecap:round;stroke-miterlimit:4;stroke-dasharray:none;stroke-opacity:1"
           id="rect5763"
           width="28.276413"
           height="82.650459"
           x="187.42709"
           y="32.42857" />
        <rect
           y="29.517618"
           x="172.66055"
           height="16.130798"
           width="58.117172"
           id="rect5765"
           style="opacity:1;fill:#89c4f8;fill-opacity:1;stroke:none;stroke-width:0.10481989;stroke-linecap:round;stroke-miterlimit:4;stroke-dasharray:none;stroke-opacity:1" />
      </g>
      <g
         transform="translate(57.452381,-39.409158)"
         id="g11071">
        <path
           inkscape:connector-curvature="0"
           id="path5693"
           d="m 69.331554,148.05877 -21.39768,42.44118 42.86724,0.0818 z"
           style="fill:#89c4f8;fill-opacity:1;stroke:none;stroke-width:0.07000432px;stroke-linecap:butt;stroke-linejoin:miter;stroke-opacity:1" />
        <path
           style="fill:#f889a7;fill-opacity:1;stroke:none;stroke-width:0.07000432px;stroke-linecap:butt;stroke-linejoin:miter;stroke-opacity:1"
           d="m 47.933874,190.49995 -21.39767,42.44119 42.86724,0.0818 z"
           id="path5695"
           inkscape:connector-curvature="0" />
        <path
           inkscape:connector-curvature="0"
           id="path5697"
           d="m 90.801114,190.58172 -21.39767,42.44119 42.867236,0.0818 z"
           style="fill:#fab289;fill-opacity:0.94117647;stroke:none;stroke-width:0.07000432px;stroke-linecap:butt;stroke-linejoin:miter;stroke-opacity:1" />
      </g>
      <g
         transform="translate(57.452381,-39.409158)"
         id="g11076">
        <rect
           style="opacity:1;fill:#f889a7;fill-opacity:1;stroke:none;stroke-width:0.10481989;stroke-linecap:round;stroke-miterlimit:4;stroke-dasharray:none;stroke-opacity:1"
           id="rect5705"
           width="28.276413"
           height="82.650459"
           x="113.33719"
           y="150.45369" />
        <path
           transform="matrix(0.00584891,0.99998289,0.99998199,-0.00600082,0,0)"
           style="opacity:1;fill:#a7f889;fill-opacity:1;stroke:none;stroke-width:0.10481988;stroke-linecap:round;stroke-miterlimit:4;stroke-dasharray:none;stroke-opacity:1"
           id="path5707"
           sodipodi:type="arc"
           sodipodi:cx="175.3367"
           sodipodi:cy="142.20821"
           sodipodi:rx="24.025923"
           sodipodi:ry="23.55522"
           sodipodi:start="0"
           sodipodi:end="3.1347668"
           d="m 199.36262,142.20821 a 24.025923,23.55522 0 0 1 -23.94392,23.55508 24.025923,23.55522 0 0 1 -24.10736,-23.3943 l 24.02536,-0.16078 z" />
        <path
           style="fill:#89c4f8;fill-opacity:1;stroke:none;stroke-width:0.07000432px;stroke-linecap:butt;stroke-linejoin:miter;stroke-opacity:1"
           d="m 113.69798,174.46816 -0.36056,58.6364 h 58.98691 z"
           id="path5709"
           inkscape:connector-curvature="0" />
      </g>
      <g
         transform="translate(57.452381,-39.409158)"
         id="g11066">
        <rect
           y="150.45409"
           x="-26.537567"
           height="82.650459"
           width="28.276413"
           id="rect5711"
           style="opacity:1;fill:#f889a7;fill-opacity:1;stroke:none;stroke-width:0.10481989;stroke-linecap:round;stroke-miterlimit:4;stroke-dasharray:none;stroke-opacity:1" />
        <path
           d="M 198.52379,2.3358338 A 24.025923,23.55522 0 0 1 174.57986,25.890916 24.025923,23.55522 0 0 1 150.4725,2.496617 l 24.02536,-0.1607832 z"
           sodipodi:end="3.1347668"
           sodipodi:start="0"
           sodipodi:ry="23.55522"
           sodipodi:rx="24.025923"
           sodipodi:cy="2.3358338"
           sodipodi:cx="174.49786"
           sodipodi:type="arc"
           id="path5713"
           style="opacity:1;fill:#a7f889;fill-opacity:1;stroke:none;stroke-width:0.10481988;stroke-linecap:round;stroke-miterlimit:4;stroke-dasharray:none;stroke-opacity:1"
           transform="matrix(0.00584891,0.99998289,0.99998199,-0.00600082,0,0)" />
      </g>
      <g
         transform="translate(57.452381,-39.409158)"
         id="g11080">
        <rect
           y="150.45409"
           x="186.29172"
           height="82.650459"
           width="28.276413"
           id="rect5729"
           style="opacity:1;fill:#f889a7;fill-opacity:1;stroke:none;stroke-width:0.10481989;stroke-linecap:round;stroke-miterlimit:4;stroke-dasharray:none;stroke-opacity:1" />
        <rect
           style="opacity:1;fill:#89c4f8;fill-opacity:1;stroke:none;stroke-width:0.10481989;stroke-linecap:round;stroke-miterlimit:4;stroke-dasharray:none;stroke-opacity:1"
           id="rect5731"
           width="58.117172"
           height="16.130798"
           x="171.52518"
           y="147.5432" />
      </g>
      <g
         transform="translate(57.452381,-39.409158)"
         id="g11084">
        <path
           transform="matrix(-0.83636375,0.54817487,-0.56299502,-0.82646029,0,0)"
           style="opacity:1;fill:#f2b490;fill-opacity:1;stroke:none;stroke-width:0.10482816;stroke-linecap:round;stroke-miterlimit:4;stroke-dasharray:none;stroke-opacity:1"
           id="path5777"
           sodipodi:type="arc"
           sodipodi:cx="-123.3586"
           sodipodi:cy="-306.6683"
           sodipodi:rx="39.052971"
           sodipodi:ry="38.765736"
           sodipodi:start="0"
           sodipodi:end="3.1347668"
           d="m -84.305626,-306.6683 a 39.052971,38.765736 0 0 1 -38.919684,38.76551 39.052971,38.765736 0 0 1 -39.18535,-38.50091 l 39.05206,-0.2646 z" />
        <path
           d="m 146.04945,307.31482 a 39.052971,38.765736 0 0 1 -38.91968,38.76551 39.052971,38.765736 0 0 1 -39.185348,-38.5009 l 39.052058,-0.26461 z"
           sodipodi:end="3.1347668"
           sodipodi:start="0"
           sodipodi:ry="38.765736"
           sodipodi:rx="39.052971"
           sodipodi:cy="307.31482"
           sodipodi:cx="106.99648"
           sodipodi:type="arc"
           id="path5779"
           style="opacity:1;fill:#89c4f8;fill-opacity:1;stroke:none;stroke-width:0.10482816;stroke-linecap:round;stroke-miterlimit:4;stroke-dasharray:none;stroke-opacity:1"
           transform="matrix(0.83636375,-0.54817487,0.56299502,0.82646029,0,0)" />
      </g>
    </g>
    <g
       id="g10892"
       transform="translate(-10.690781,-39.021351)">
      <path
         inkscape:connector-curvature="0"
         style="opacity:1;fill:#f6c4a0;fill-opacity:1;stroke:none;stroke-width:0.10481989;stroke-linecap:round;stroke-miterlimit:4;stroke-dasharray:none;stroke-opacity:1"
         d="m -328.54957,339.8005 a 11.464831,27.161233 72.856038 0 1 -31.1363,-1.33739 11.464831,27.161233 72.856038 0 1 20.01792,-19.14373 11.464831,27.161233 72.856038 0 1 31.13453,1.33802 11.464831,27.161233 72.856038 0 1 -20.01615,19.1431 z m -2.08515,-3.84108 a 7.1655192,16.97577 72.856038 0 0 12.50945,-11.96325 7.1655192,16.97577 72.856038 0 0 -19.45828,-0.83712 7.1655192,16.97577 72.856038 0 0 -12.51047,11.96517 7.1655192,16.97577 72.856038 0 0 19.4593,0.8352 z"
         id="path5781" />
      <path
         inkscape:connector-curvature="0"
         id="path5783"
         d="m -326.83106,336.4148 a 11.464831,27.161233 72.856038 0 1 -31.13631,-1.33738 11.464831,27.161233 72.856038 0 1 20.01793,-19.14372 11.464831,27.161233 72.856038 0 1 31.13451,1.338 11.464831,27.161233 72.856038 0 1 -20.01613,19.1431 z m -2.08516,-3.84106 a 7.1655192,16.97577 72.856038 0 0 12.50951,-11.96321 7.1655192,16.97577 72.856038 0 0 -19.45837,-0.83716 7.1655192,16.97577 72.856038 0 0 -12.51039,11.96523 7.1655192,16.97577 72.856038 0 0 19.45925,0.83514 z"
         style="opacity:1;fill:#f9a3b2;fill-opacity:1;stroke:none;stroke-width:0.10481989;stroke-linecap:round;stroke-miterlimit:4;stroke-dasharray:none;stroke-opacity:1" />
      <path
         style="fill:#f2b28f;fill-opacity:0.74509804;stroke:none;stroke-width:0.07000434px;stroke-linecap:butt;stroke-linejoin:miter;stroke-opacity:1"
         d="m -308.60845,246.78312 -39.17195,14.35559 1.20671,15.1571 -24.93855,21.37474 37.21937,-16.04263 -1.98451,-13.76173 z"
         id="path5785"
         inkscape:connector-curvature="0" />
      <path
         style="fill:#f787a6;fill-opacity:0.74509804;stroke:none;stroke-width:0.07000434px;stroke-linecap:butt;stroke-linejoin:miter;stroke-opacity:1"
         d="m -248.07387,289.45128 32.07886,-20.43429 7.45297,29.38602 z"
         id="path5787"
         inkscape:connector-curvature="0" />
      <path
         style="fill:none;stroke:#a7f889;stroke-width:7.18740606;stroke-linecap:round;stroke-linejoin:miter;stroke-miterlimit:4;stroke-dasharray:none;stroke-opacity:0.74509804"
         d="m 403.13379,361.89609 c 6.03208,-7.84932 -7.26301,-17.90351 -17.94524,-26.06271 -2.20528,-1.68426 -5.14371,3.28581 -4.62053,5.02381 1.12707,3.74502 3.18389,9.8767 -3.8349,12.72831 -4.85119,1.97096 -8.12453,-4.46556 -14.70186,-6.29843 -6.04334,-1.684 -3.19291,8.0278 -7.63609,6.09162 -2.23531,-0.97409 -3.74767,-1.63777 -5.69757,-3.34898 -10.56165,-9.26758 -6.94382,0.21426 -9.61518,-0.18407 -5.25311,-0.7833 -7.3987,-4.26703 -11.97379,-1.42845 -5.80899,3.6042 -6.53509,2.74928 -25.04834,-0.52162"
         id="path5791"
         inkscape:connector-curvature="0" />
      <path
         style="fill:#89c4f8;fill-opacity:0.74509804;stroke:none;stroke-width:0.07000434px;stroke-linecap:butt;stroke-linejoin:miter;stroke-opacity:1"
         d="m -281.4319,332.10899 32.07886,-20.43429 7.45295,29.38601 z"
         id="path5793"
         inkscape:connector-curvature="0" />
      <ellipse
         cy="327.87897"
         cx="-183.9518"
         id="ellipse5795"
         style="opacity:1;fill:#a6f889;fill-opacity:0.74509804;stroke:none;stroke-width:0.10481989;stroke-linecap:round;stroke-miterlimit:4;stroke-dasharray:none;stroke-opacity:0.70196078"
         rx="12.614587"
         ry="10.101241" />
      <path
         style="opacity:1;fill:#f6c4a0;fill-opacity:1;stroke:none;stroke-width:0.10481989;stroke-linecap:round;stroke-miterlimit:4;stroke-dasharray:none;stroke-opacity:1"
         d="m -128.613,304.17489 a 14.108067,29.170917 58.172893 0 0 -11.43994,26.35474 14.108067,29.170917 58.172893 0 0 34.76347,-8.13309 14.108067,29.170917 58.172893 0 0 11.438304,-26.35352 14.108067,29.170917 58.172893 0 0 -34.761834,8.13187 z m 4.37418,3.41733 a 8.8175412,18.231821 58.172893 0 1 21.72413,-5.08244 8.8175412,18.231821 58.172893 0 1 -7.14728,16.4707 8.8175412,18.231821 58.172893 0 1 -21.72743,5.0824 8.8175412,18.231821 58.172893 0 1 7.15058,-16.47066 z"
         id="path5797"
         inkscape:connector-curvature="0" />
      <path
         inkscape:connector-curvature="0"
         id="path5799"
         d="M 36.54073,333.4085 4.4618632,312.97426 -2.9910863,342.36028 Z"
         style="fill:#f3b28e;fill-opacity:0.74509804;stroke:none;stroke-width:0.07000434px;stroke-linecap:butt;stroke-linejoin:miter;stroke-opacity:1" />
      <ellipse
         cy="307.1134"
         cx="53.43605"
         id="ellipse5801"
         style="opacity:1;fill:#f889a7;fill-opacity:0.74509804;stroke:none;stroke-width:0.10481989;stroke-linecap:round;stroke-miterlimit:4;stroke-dasharray:none;stroke-opacity:0.70196078"
         rx="12.614587"
         ry="10.101241" />
      <path
         id="path5803"
         d="m 88.962855,354.32116 a 33.713734,14.905604 24.17147 0 0 -39.397934,-3.28208 33.713734,14.905604 24.17147 0 0 20.359754,27.20783 33.713734,14.905604 24.17147 0 0 39.395935,3.28107 33.713734,14.905604 24.17147 0 0 -20.357755,-27.20682 z m -3.570479,4.48712 a 21.071083,9.3160017 24.171471 0 1 12.723067,17.00256 21.071083,9.3160017 24.171471 0 1 -24.621584,-2.04942 21.071083,9.3160017 24.171471 0 1 -12.723876,-17.00522 21.071083,9.3160017 24.171471 0 1 24.622393,2.05208 z"
         style="opacity:1;fill:#f6c4a0;fill-opacity:1;stroke:none;stroke-width:0.10481989;stroke-linecap:round;stroke-miterlimit:4;stroke-dasharray:none;stroke-opacity:1"
         inkscape:connector-curvature="0" />
      <path
         style="opacity:1;fill:#f9a3b2;fill-opacity:1;stroke:none;stroke-width:0.10481989;stroke-linecap:round;stroke-miterlimit:4;stroke-dasharray:none;stroke-opacity:1"
         d="m 92.533335,349.83406 a 33.713734,14.905604 24.17147 0 0 -39.397934,-3.28213 33.713734,14.905604 24.17147 0 0 20.359771,27.20783 33.713734,14.905604 24.17147 0 0 39.395988,3.28106 33.713734,14.905604 24.17147 0 0 -20.357825,-27.20676 z m -3.570462,4.4871 a 21.071083,9.3160017 24.171471 0 1 12.723117,17.00253 21.071083,9.3160017 24.171471 0 1 -24.62167,-2.04933 21.071083,9.3160017 24.171471 0 1 -12.723823,-17.0053 21.071083,9.3160017 24.171471 0 1 24.622376,2.0521 z"
         id="path5805"
         inkscape:connector-curvature="0" />
      <path
         sodipodi:nodetypes="cccc"
         inkscape:connector-curvature="0"
         id="path5807"
         d="m -24.65304,298.59442 -40.934011,1.72881 30.019735,47.52222 z"
         style="fill:#89c4f8;fill-opacity:0.74509804;stroke:none;stroke-width:0.07000434px;stroke-linecap:butt;stroke-linejoin:miter;stroke-opacity:1" />
      <ellipse
         cy="373.22696"
         cx="-39.350639"
         id="ellipse5809"
         style="opacity:1;fill:#a6f889;fill-opacity:0.74509804;stroke:none;stroke-width:0.10481989;stroke-linecap:round;stroke-miterlimit:4;stroke-dasharray:none;stroke-opacity:0.70196078"
         rx="12.614587"
         ry="10.101241" />
      <path
         inkscape:connector-curvature="0"
         id="path5811"
         d="m 173.21292,348.81049 -32.07889,-20.43427 -7.45291,29.38601 z"
         style="fill:#f787a6;fill-opacity:0.74509804;stroke:none;stroke-width:0.07000434px;stroke-linecap:butt;stroke-linejoin:miter;stroke-opacity:1" />
      <path
         style="fill:none;stroke:#89c4f8;stroke-width:7.84648514;stroke-linecap:round;stroke-linejoin:miter;stroke-miterlimit:4;stroke-dasharray:none;stroke-opacity:0.74509804"
         d="m 87.379688,334.1698 c -0.0029,-3.79389 -3.31088,-10.81256 0.754858,-14.09139 2.872366,-2.31645 12.244404,18.3294 16.803374,11.14345 2.24159,-3.53325 7.15981,-22.70464 11.10305,-21.44324 8.22422,2.63097 5.89695,12.72351 12.80704,14.93398 8.17034,2.61372 14.6243,-13.65281 15.50124,-16.19081 1.13399,-3.28206 10.39039,1.9255 10.94366,2.10254 0.59373,0.18992 5.45794,-6.17676 6.12115,-6.78141"
         id="path5813"
         inkscape:connector-curvature="0" />
      <path
         id="path5815"
         d="m -19.203807,465.64105 a 11.464831,27.161233 72.856038 0 1 -31.136315,-1.33739 11.464831,27.161233 72.856038 0 1 20.017925,-19.14373 11.464831,27.161233 72.856038 0 1 31.13451746,1.33804 11.464831,27.161233 72.856038 0 1 -20.01612746,19.14308 z m -2.085169,-3.8411 a 7.1655192,16.97577 72.856038 0 0 12.5094546,-11.96321 7.1655192,16.97577 72.856038 0 0 -19.4582786,-0.83713 7.1655192,16.97577 72.856038 0 0 -12.510481,11.96517 7.1655192,16.97577 72.856038 0 0 19.459305,0.83517 z"
         style="opacity:1;fill:#f6c4a0;fill-opacity:1;stroke:none;stroke-width:0.10481989;stroke-linecap:round;stroke-miterlimit:4;stroke-dasharray:none;stroke-opacity:1"
         inkscape:connector-curvature="0" />
      <path
         style="opacity:1;fill:#f9a3b2;fill-opacity:1;stroke:none;stroke-width:0.10481989;stroke-linecap:round;stroke-miterlimit:4;stroke-dasharray:none;stroke-opacity:1"
         d="m -17.485302,462.25534 a 11.464831,27.161233 72.856038 0 1 -31.136315,-1.33738 11.464831,27.161233 72.856038 0 1 20.017925,-19.14373 11.464831,27.161233 72.856038 0 1 31.1345173,1.33805 11.464831,27.161233 72.856038 0 1 -20.0161273,19.14306 z m -2.085168,-3.84103 a 7.1655192,16.97577 72.856038 0 0 12.5095094,-11.96322 7.1655192,16.97577 72.856038 0 0 -19.4583704,-0.83716 7.1655192,16.97577 72.856038 0 0 -12.510391,11.96522 7.1655192,16.97577 72.856038 0 0 19.459252,0.83516 z"
         id="path5817"
         inkscape:connector-curvature="0" />
      <path
         inkscape:connector-curvature="0"
         id="path5819"
         d="m 27.355427,372.62367 -39.171951,14.3556 1.206701,15.1571 -24.938555,21.37471 37.2193826,-16.04261 -1.9845059,-13.76172 z"
         style="fill:#f2b28f;fill-opacity:0.74509804;stroke:none;stroke-width:0.07000434px;stroke-linecap:butt;stroke-linejoin:miter;stroke-opacity:1" />
      <path
         inkscape:connector-curvature="0"
         id="path5821"
         d="m 87.890001,415.29181 32.078869,-20.43425 7.45296,29.38601 z"
         style="fill:#f787a6;fill-opacity:0.74509804;stroke:none;stroke-width:0.07000434px;stroke-linecap:butt;stroke-linejoin:miter;stroke-opacity:1" />
      <ellipse
         ry="10.101241"
         rx="12.614587"
         cy="382.48923"
         cx="-153.69073"
         id="ellipse5823"
         style="opacity:1;fill:#89c4f8;fill-opacity:0.74509804;stroke:none;stroke-width:0.10481989;stroke-linecap:round;stroke-miterlimit:4;stroke-dasharray:none;stroke-opacity:0.70196078"
         transform="scale(-1,1)" />
      <path
         inkscape:connector-curvature="0"
         id="path5825"
         d="m 27.91385,457.94952 32.078866,-20.43425 7.452948,29.38601 z"
         style="fill:#89c4f8;fill-opacity:0.74509804;stroke:none;stroke-width:0.07000434px;stroke-linecap:butt;stroke-linejoin:miter;stroke-opacity:1" />
      <ellipse
         ry="10.101241"
         rx="12.614587"
         style="opacity:1;fill:#a6f889;fill-opacity:0.74509804;stroke:none;stroke-width:0.10481989;stroke-linecap:round;stroke-miterlimit:4;stroke-dasharray:none;stroke-opacity:0.70196078"
         id="ellipse5827"
         cx="125.39396"
         cy="453.71957" />
      <path
         style="fill:#f3b28e;fill-opacity:0.74509804;stroke:none;stroke-width:0.07000434px;stroke-linecap:butt;stroke-linejoin:miter;stroke-opacity:1"
         d="m -276.40204,375.92222 -32.07889,-20.43427 -7.45295,29.38601 z"
         id="path5829"
         inkscape:connector-curvature="0" />
      <path
         inkscape:connector-curvature="0"
         style="opacity:1;fill:#f6c4a0;fill-opacity:1;stroke:none;stroke-width:0.10481989;stroke-linecap:round;stroke-miterlimit:4;stroke-dasharray:none;stroke-opacity:1"
         d="m -223.97993,396.83485 a 33.713734,14.905604 24.17147 0 0 -39.39794,-3.28205 33.713734,14.905604 24.17147 0 0 20.35976,27.20781 33.713734,14.905604 24.17147 0 0 39.39593,3.28105 33.713734,14.905604 24.17147 0 0 -20.35775,-27.20681 z m -3.57048,4.48713 a 21.071083,9.3160017 24.171471 0 1 12.72306,17.00257 21.071083,9.3160017 24.171471 0 1 -24.62158,-2.04942 21.071083,9.3160017 24.171471 0 1 -12.72389,-17.00523 21.071083,9.3160017 24.171471 0 1 24.62241,2.05208 z"
         id="path5831" />
      <path
         inkscape:connector-curvature="0"
         id="path5833"
         d="m -220.40944,392.34774 a 33.713734,14.905604 24.17147 0 0 -39.39794,-3.28211 33.713734,14.905604 24.17147 0 0 20.35977,27.20782 33.713734,14.905604 24.17147 0 0 39.39598,3.28107 33.713734,14.905604 24.17147 0 0 -20.35781,-27.20678 z m -3.57048,4.48711 a 21.071083,9.3160017 24.171471 0 1 12.72311,17.00255 21.071083,9.3160017 24.171471 0 1 -24.62166,-2.04934 21.071083,9.3160017 24.171471 0 1 -12.72381,-17.00529 21.071083,9.3160017 24.171471 0 1 24.62236,2.05208 z"
         style="opacity:1;fill:#f9a3b2;fill-opacity:1;stroke:none;stroke-width:0.10481989;stroke-linecap:round;stroke-miterlimit:4;stroke-dasharray:none;stroke-opacity:1" />
      <ellipse
         ry="10.101241"
         rx="12.614587"
         style="opacity:1;fill:#a6f889;fill-opacity:0.74509804;stroke:none;stroke-width:0.10481989;stroke-linecap:round;stroke-miterlimit:4;stroke-dasharray:none;stroke-opacity:0.70196078"
         id="ellipse5835"
         cx="-352.29346"
         cy="415.74069" />
      <path
         style="fill:#f787a6;fill-opacity:0.74509804;stroke:none;stroke-width:0.07000434px;stroke-linecap:butt;stroke-linejoin:miter;stroke-opacity:1"
         d="m -139.72988,391.32419 -32.07888,-20.43427 -7.4529,29.38601 z"
         id="path5837"
         inkscape:connector-curvature="0" />
      <path
         style="fill:#f2b28f;fill-opacity:0.74509804;stroke:none;stroke-width:0.07000434px;stroke-linecap:butt;stroke-linejoin:miter;stroke-opacity:1"
         d="m -285.58736,415.13737 -39.17196,14.35561 1.20672,15.1571 -24.93855,21.37471 37.21937,-16.04261 -1.98452,-13.76174 z"
         id="path5839"
         inkscape:connector-curvature="0" />
      <path
         style="fill:#f787a6;fill-opacity:0.74509804;stroke:none;stroke-width:0.07000434px;stroke-linecap:butt;stroke-linejoin:miter;stroke-opacity:1"
         d="m -225.05279,457.80552 32.07886,-20.43425 7.45297,29.38599 z"
         id="path5841"
         inkscape:connector-curvature="0" />
      <ellipse
         transform="scale(-1,1)"
         style="opacity:1;fill:#89c4f8;fill-opacity:0.74509804;stroke:none;stroke-width:0.10481989;stroke-linecap:round;stroke-miterlimit:4;stroke-dasharray:none;stroke-opacity:0.70196078"
         id="ellipse5843"
         cx="159.25208"
         cy="425.00296"
         rx="12.614587"
         ry="10.101241" />
      <path
         style="fill:#89c4f8;fill-opacity:0.74509804;stroke:none;stroke-width:0.07000434px;stroke-linecap:butt;stroke-linejoin:miter;stroke-opacity:1"
         d="m -103.73796,417.13637 32.078874,-20.43424 7.452958,29.386 z"
         id="path5845"
         inkscape:connector-curvature="0" />
      <ellipse
         cy="465.05652"
         cx="-101.9392"
         id="ellipse5847"
         style="opacity:1;fill:#a6f889;fill-opacity:0.74509804;stroke:none;stroke-width:0.10481989;stroke-linecap:round;stroke-miterlimit:4;stroke-dasharray:none;stroke-opacity:0.70196078"
         rx="12.614587"
         ry="10.101241" />
      <ellipse
         style="opacity:1;fill:#f3b28e;fill-opacity:0.74509804;stroke:none;stroke-width:0.10481989;stroke-linecap:round;stroke-miterlimit:4;stroke-dasharray:none;stroke-opacity:0.70196078"
         id="ellipse5849"
         cx="-105.38484"
         cy="356.94043"
         rx="12.614587"
         ry="10.101241" />
      <path
         id="path5851"
         d="m 218.20105,332.9983 a 11.464831,27.161233 72.856038 0 1 -31.13629,-1.33738 11.464831,27.161233 72.856038 0 1 20.0179,-19.14373 11.464831,27.161233 72.856038 0 1 31.13452,1.33801 11.464831,27.161233 72.856038 0 1 -20.01613,19.1431 z m -2.08517,-3.84108 a 7.1655192,16.97577 72.856038 0 0 12.50946,-11.96324 7.1655192,16.97577 72.856038 0 0 -19.45828,-0.83711 7.1655192,16.97577 72.856038 0 0 -12.51048,11.96515 7.1655192,16.97577 72.856038 0 0 19.4593,0.8352 z"
         style="opacity:1;fill:#f6c4a0;fill-opacity:1;stroke:none;stroke-width:0.10481989;stroke-linecap:round;stroke-miterlimit:4;stroke-dasharray:none;stroke-opacity:1"
         inkscape:connector-curvature="0" />
      <path
         style="opacity:1;fill:#f9a3b2;fill-opacity:1;stroke:none;stroke-width:0.10481989;stroke-linecap:round;stroke-miterlimit:4;stroke-dasharray:none;stroke-opacity:1"
         d="m 219.91955,329.61261 a 11.464831,27.161233 72.856038 0 1 -31.13629,-1.33739 11.464831,27.161233 72.856038 0 1 20.01791,-19.14373 11.464831,27.161233 72.856038 0 1 31.13451,1.33803 11.464831,27.161233 72.856038 0 1 -20.01613,19.14309 z m -2.08516,-3.84105 a 7.1655192,16.97577 72.856038 0 0 12.50952,-11.96321 7.1655192,16.97577 72.856038 0 0 -19.45838,-0.83716 7.1655192,16.97577 72.856038 0 0 -12.51039,11.96521 7.1655192,16.97577 72.856038 0 0 19.45925,0.83516 z"
         id="path5853"
         inkscape:connector-curvature="0" />
      <path
         inkscape:connector-curvature="0"
         id="path5855"
         d="m 265.31871,325.30679 32.07886,-20.43427 7.45295,29.38602 z"
         style="fill:#89c4f8;fill-opacity:0.74509804;stroke:none;stroke-width:0.07000434px;stroke-linecap:butt;stroke-linejoin:miter;stroke-opacity:1" />
      <ellipse
         ry="10.101241"
         rx="12.614587"
         style="opacity:1;fill:#a6f889;fill-opacity:0.74509804;stroke:none;stroke-width:0.10481989;stroke-linecap:round;stroke-miterlimit:4;stroke-dasharray:none;stroke-opacity:0.70196078"
         id="ellipse5857"
         cx="362.79883"
         cy="321.07678" />
      <path
         inkscape:connector-curvature="0"
         id="path5885"
         d="m 270.34856,369.12002 -32.07885,-20.43426 -7.45296,29.38602 z"
         style="fill:#f3b28e;fill-opacity:0.74509804;stroke:none;stroke-width:0.07000434px;stroke-linecap:butt;stroke-linejoin:miter;stroke-opacity:1" />
      <path
         id="path5887"
         d="m 322.77069,390.03265 a 33.713734,14.905604 24.17147 0 0 -39.39794,-3.28205 33.713734,14.905604 24.17147 0 0 20.35976,27.20781 33.713734,14.905604 24.17147 0 0 39.39593,3.28107 33.713734,14.905604 24.17147 0 0 -20.35775,-27.20683 z m -3.57049,4.48714 a 21.071083,9.3160017 24.171471 0 1 12.72309,17.00257 21.071083,9.3160017 24.171471 0 1 -24.62159,-2.04941 21.071083,9.3160017 24.171471 0 1 -12.72389,-17.00524 21.071083,9.3160017 24.171471 0 1 24.62239,2.05208 z"
         style="opacity:1;fill:#f6c4a0;fill-opacity:1;stroke:none;stroke-width:0.10481989;stroke-linecap:round;stroke-miterlimit:4;stroke-dasharray:none;stroke-opacity:1"
         inkscape:connector-curvature="0" />
      <path
         style="opacity:1;fill:#f9a3b2;fill-opacity:1;stroke:none;stroke-width:0.10481989;stroke-linecap:round;stroke-miterlimit:4;stroke-dasharray:none;stroke-opacity:1"
         d="m 326.34115,385.54556 a 33.713734,14.905604 24.17147 0 0 -39.39791,-3.28213 33.713734,14.905604 24.17147 0 0 20.35976,27.20784 33.713734,14.905604 24.17147 0 0 39.396,3.28106 33.713734,14.905604 24.17147 0 0 -20.35785,-27.20677 z m -3.57043,4.48709 a 21.071083,9.3160017 24.171471 0 1 12.7231,17.00257 21.071083,9.3160017 24.171471 0 1 -24.62166,-2.04935 21.071083,9.3160017 24.171471 0 1 -12.72384,-17.00529 21.071083,9.3160017 24.171471 0 1 24.6224,2.05207 z"
         id="path5889"
         inkscape:connector-curvature="0" />
      <ellipse
         cy="408.93842"
         cx="194.4572"
         id="ellipse5891"
         style="opacity:1;fill:#a6f889;fill-opacity:0.74509804;stroke:none;stroke-width:0.10481989;stroke-linecap:round;stroke-miterlimit:4;stroke-dasharray:none;stroke-opacity:0.70196078"
         rx="12.614587"
         ry="10.101241" />
      <path
         inkscape:connector-curvature="0"
         id="path5893"
         d="m 407.02074,384.52199 -32.07887,-20.43427 -7.45291,29.38603 z"
         style="fill:#f787a6;fill-opacity:0.74509804;stroke:none;stroke-width:0.07000434px;stroke-linecap:butt;stroke-linejoin:miter;stroke-opacity:1" />
      <path
         inkscape:connector-curvature="0"
         id="path5895"
         d="m 261.16327,408.33518 -39.17196,14.3556 1.2067,15.1571 -24.93855,21.37473 37.21938,-16.04263 -1.98451,-13.76172 z"
         style="fill:#f2b28f;fill-opacity:0.74509804;stroke:none;stroke-width:0.07000434px;stroke-linecap:butt;stroke-linejoin:miter;stroke-opacity:1" />
      <path
         inkscape:connector-curvature="0"
         id="path5897"
         d="m 321.69783,451.00332 32.07886,-20.43425 7.45297,29.38601 z"
         style="fill:#f787a6;fill-opacity:0.74509804;stroke:none;stroke-width:0.07000434px;stroke-linecap:butt;stroke-linejoin:miter;stroke-opacity:1" />
      <ellipse
         ry="10.101241"
         rx="12.614587"
         cy="418.20078"
         cx="-387.49857"
         id="ellipse5899"
         style="opacity:1;fill:#89c4f8;fill-opacity:0.74509804;stroke:none;stroke-width:0.10481989;stroke-linecap:round;stroke-miterlimit:4;stroke-dasharray:none;stroke-opacity:0.70196078"
         transform="scale(-1,1)" />
    </g>
    <g
       id="g10951"
       transform="translate(-7.4835467,28.33057)">
      <path
         style="fill:#f3b28e;fill-opacity:0.74509804;stroke:none;stroke-width:0.07000434px;stroke-linecap:butt;stroke-linejoin:miter;stroke-opacity:1"
         d="m 26.94032,-14.399292 -33.0063898,-21.0251 -7.6684412,30.2356874 z"
         id="path5859"
         inkscape:connector-curvature="0" />
      <path
         inkscape:connector-curvature="0"
         style="opacity:1;fill:#f6c4a0;fill-opacity:1;stroke:none;stroke-width:0.10481989;stroke-linecap:round;stroke-miterlimit:4;stroke-dasharray:none;stroke-opacity:1"
         d="m 345.8732,-86.20025 a 34.688527,15.336581 24.171471 0 0 -40.53707,-3.376982 34.688527,15.336581 24.171471 0 0 20.94841,27.994513 34.688527,15.336581 24.171471 0 0 40.53503,3.37594 34.688527,15.336581 24.171471 0 0 -20.94637,-27.993471 z m -3.67372,4.616864 a 21.680327,9.585363 24.17147 0 1 13.09093,17.494174 21.680327,9.585363 24.17147 0 1 -25.33347,-2.108676 21.680327,9.585363 24.17147 0 1 -13.09178,-17.496907 21.680327,9.585363 24.17147 0 1 25.33432,2.111409 z"
         id="path5861" />
      <path
         inkscape:connector-curvature="0"
         id="path5863"
         d="m 349.54692,-90.817102 a 34.688527,15.336581 24.171471 0 0 -40.53707,-3.377019 34.688527,15.336581 24.171471 0 0 20.94844,27.994514 34.688527,15.336581 24.171471 0 0 40.53507,3.375939 34.688527,15.336581 24.171471 0 0 -20.94644,-27.993434 z m -3.67371,4.616852 a 21.680327,9.585363 24.17147 0 1 13.091,17.494151 21.680327,9.585363 24.17147 0 1 -25.33359,-2.108591 21.680327,9.585363 24.17147 0 1 -13.09171,-17.497006 21.680327,9.585363 24.17147 0 1 25.3343,2.111446 z"
         style="opacity:1;fill:#f9a3b2;fill-opacity:1;stroke:none;stroke-width:0.10481989;stroke-linecap:round;stroke-miterlimit:4;stroke-dasharray:none;stroke-opacity:1" />
      <path
         style="fill:#89c4f8;fill-opacity:0.74509804;stroke:none;stroke-width:0.07000434px;stroke-linecap:butt;stroke-linejoin:miter;stroke-opacity:1"
         d="m -70.072442,-94.546182 -42.117578,1.778791 30.887737,48.896268 z"
         id="path5865"
         inkscape:connector-curvature="0"
         sodipodi:nodetypes="cccc" />
      <ellipse
         ry="10.393307"
         rx="12.979322"
         style="opacity:1;fill:#a6f889;fill-opacity:0.74509804;stroke:none;stroke-width:0.10481989;stroke-linecap:round;stroke-miterlimit:4;stroke-dasharray:none;stroke-opacity:0.70196078"
         id="ellipse5867"
         cx="213.84958"
         cy="-73.163506" />
      <path
         inkscape:connector-curvature="0"
         id="path5869"
         d="m 51.861474,-29.946698 c -0.003,-3.903604 -3.406613,-11.125199 0.776683,-14.498829 2.955416,-2.383422 12.598441,18.859372 17.289223,11.465665 2.306401,-3.635417 7.366825,-23.361156 11.42408,-22.063247 8.462021,2.707015 6.067461,13.091367 13.177341,15.365767 8.406579,2.689301 15.047149,-14.047575 15.949439,-16.658965 1.16678,-3.376933 10.69082,1.981195 11.26009,2.163348 0.6109,0.195422 5.61575,-6.355361 6.29813,-6.977484"
         style="fill:none;stroke:#89c4f8;stroke-width:7.84648371;stroke-linecap:round;stroke-linejoin:miter;stroke-miterlimit:4;stroke-dasharray:none;stroke-opacity:0.74509804" />
      <path
         inkscape:connector-curvature="0"
         style="opacity:1;fill:#f6c4a0;fill-opacity:1;stroke:none;stroke-width:0.10481989;stroke-linecap:round;stroke-miterlimit:4;stroke-dasharray:none;stroke-opacity:1"
         d="M 234.57903,21.9227 A 11.796324,27.946569 72.856038 0 1 202.54244,20.546635 11.796324,27.946569 72.856038 0 1 223.13916,0.84939393 11.796324,27.946569 72.856038 0 1 255.17388,2.2261013 11.796324,27.946569 72.856038 0 1 234.57903,21.9227 Z m -2.14546,-3.952145 a 7.3727018,17.466606 72.856038 0 0 12.87116,-12.3091309 7.3727018,17.466606 72.856038 0 0 -20.0209,-0.8613273 7.3727018,17.466606 72.856038 0 0 -12.87221,12.3111282 7.3727018,17.466606 72.856038 0 0 20.02195,0.85933 z"
         id="path5871" />
      <path
         inkscape:connector-curvature="0"
         id="path5873"
         d="M 236.34722,18.4391 A 11.796324,27.946569 72.856038 0 1 204.31063,17.063049 11.796324,27.946569 72.856038 0 1 224.90736,-2.6341915 11.796324,27.946569 72.856038 0 1 256.94209,-1.2574694 11.796324,27.946569 72.856038 0 1 236.34722,18.4391 Z m -2.14546,-3.952102 a 7.3727018,17.466606 72.856038 0 0 12.8712,-12.3091176 7.3727018,17.466606 72.856038 0 0 -20.02098,-0.8613702 7.3727018,17.466606 72.856038 0 0 -12.87211,12.3111738 7.3727018,17.466606 72.856038 0 0 20.02189,0.859314 z"
         style="opacity:1;fill:#f9a3b2;fill-opacity:1;stroke:none;stroke-width:0.10481989;stroke-linecap:round;stroke-miterlimit:4;stroke-dasharray:none;stroke-opacity:1" />
      <path
         style="fill:#f2b28f;fill-opacity:0.74509804;stroke:none;stroke-width:0.07000434px;stroke-linecap:butt;stroke-linejoin:miter;stroke-opacity:1"
         d="m 282.48448,-73.78416 -40.30458,14.770675 1.24158,15.595347 -25.65961,21.992739 38.29553,-16.50647 -2.04188,-14.159634 z"
         id="path5875"
         inkscape:connector-curvature="0" />
      <path
         style="fill:#f787a6;fill-opacity:0.74509804;stroke:none;stroke-width:0.07000434px;stroke-linecap:butt;stroke-linejoin:miter;stroke-opacity:1"
         d="m 344.76932,-29.882323 33.0064,-21.025105 7.66846,30.235691 z"
         id="path5877"
         inkscape:connector-curvature="0" />
      <ellipse
         transform="scale(-1,1)"
         style="opacity:1;fill:#89c4f8;fill-opacity:0.74509804;stroke:none;stroke-width:0.10481989;stroke-linecap:round;stroke-miterlimit:4;stroke-dasharray:none;stroke-opacity:0.70196078"
         id="ellipse5879"
         cx="-412.4726"
         cy="-63.633404"
         rx="12.979322"
         ry="10.393307" />
      <path
         style="fill:#89c4f8;fill-opacity:0.74509804;stroke:none;stroke-width:0.07000434px;stroke-linecap:butt;stroke-linejoin:miter;stroke-opacity:1"
         d="m 283.05904,14.008787 33.0064,-21.0251015 7.66843,30.2356865 z"
         id="path5881"
         inkscape:connector-curvature="0" />
      <ellipse
         cy="9.6564512"
         cx="383.3576"
         id="ellipse5883"
         style="opacity:1;fill:#a6f889;fill-opacity:0.74509804;stroke:none;stroke-width:0.10481989;stroke-linecap:round;stroke-miterlimit:4;stroke-dasharray:none;stroke-opacity:0.70196078"
         rx="12.979322"
         ry="10.393307" />
      <path
         inkscape:connector-curvature="0"
         id="path5901"
         d="m 147.60068,-27.984434 33.00639,-21.025095 7.66844,30.235682 z"
         style="fill:#89c4f8;fill-opacity:0.74509804;stroke:none;stroke-width:0.07000434px;stroke-linecap:butt;stroke-linejoin:miter;stroke-opacity:1" />
      <ellipse
         ry="10.393307"
         rx="12.979322"
         cy="-83.505249"
         cx="145.90617"
         id="ellipse5903"
         style="opacity:1;fill:#f3b28e;fill-opacity:0.74509804;stroke:none;stroke-width:0.10481989;stroke-linecap:round;stroke-miterlimit:4;stroke-dasharray:none;stroke-opacity:0.70196078" />
      <path
         style="fill:#f787a6;fill-opacity:0.74509804;stroke:none;stroke-width:0.07000434px;stroke-linecap:butt;stroke-linejoin:miter;stroke-opacity:1"
         d="m -244.03702,-67.338911 25.84894,-26.525239 -38.55314,-5.283361 z"
         id="path5905"
         inkscape:connector-curvature="0" />
      <ellipse
         transform="matrix(0.03176942,0.99949522,-0.99980534,0.01973003,0,0)"
         style="opacity:1;fill:#89c4f8;fill-opacity:0.74509804;stroke:none;stroke-width:0.10482369;stroke-linecap:round;stroke-miterlimit:4;stroke-dasharray:none;stroke-opacity:0.70196078"
         id="ellipse5907"
         cx="-85.817482"
         cy="198.74284"
         rx="10.228855"
         ry="13.188945" />
      <path
         style="fill:none;stroke:#a7f889;stroke-width:7.18740606;stroke-linecap:round;stroke-linejoin:miter;stroke-miterlimit:4;stroke-dasharray:none;stroke-opacity:0.74509804"
         d="m -168.42336,-89.149849 c 16.5015,14.963617 24.5529,40.316864 31.15344,60.860134 1.36238,4.240703 -8.53769,-5.493266 -11.03441,-9.353523 -5.38008,-8.31801 -14.05713,-21.999188 -23.05688,-26.01467 -6.22038,-2.77542 2.19441,11.913808 1.07665,17.758074 -1.0271,5.369636 -15.02397,-16.179707 -14.64553,-10.743189 0.19044,2.735101 0.32681,4.59547 1.8919,8.818456 8.47548,22.871433 -4.67025,1.586615 -5.68625,3.222207 -1.9979,3.216302 2.32385,11.276813 -5.13368,6.569927 -9.46882,-5.976438 -8.53248,-3.939619 -14.74476,8.483884"
         id="path5909"
         inkscape:connector-curvature="0" />
      <ellipse
         ry="10.393307"
         rx="12.979322"
         style="opacity:1;fill:#a6f889;fill-opacity:0.74509804;stroke:none;stroke-width:0.10481989;stroke-linecap:round;stroke-miterlimit:4;stroke-dasharray:none;stroke-opacity:0.70196078"
         id="ellipse5911"
         cx="-367.42059"
         cy="-96.174263" />
      <path
         style="fill:#f787a6;fill-opacity:0.74509804;stroke:none;stroke-width:0.07000434px;stroke-linecap:butt;stroke-linejoin:miter;stroke-opacity:1"
         d="m 0.8113471,-82.219622 -33.0064091,-21.025108 -7.668404,30.23569 z"
         id="path5913"
         inkscape:connector-curvature="0" />
      <path
         inkscape:connector-curvature="0"
         style="opacity:1;fill:#f6c4a0;fill-opacity:1;stroke:none;stroke-width:0.10481989;stroke-linecap:round;stroke-miterlimit:4;stroke-dasharray:none;stroke-opacity:1"
         d="m -197.16888,5.0359564 a 11.796324,27.946569 72.856038 0 1 -32.0366,-1.3760641 11.796324,27.946569 72.856038 0 1 20.59674,-19.6972393 11.796324,27.946569 72.856038 0 1 32.03473,1.376706 11.796324,27.946569 72.856038 0 1 -20.59487,19.6965974 z m -2.14547,-3.9521436 a 7.3727018,17.466606 72.856038 0 0 12.87115,-12.3091308 7.3727018,17.466606 72.856038 0 0 -20.02088,-0.861329 7.3727018,17.466606 72.856038 0 0 -12.87221,12.31112949 7.3727018,17.466606 72.856038 0 0 20.02194,0.85933031 z"
         id="path5915" />
      <path
         inkscape:connector-curvature="0"
         id="path5917"
         d="m -195.40069,1.5523576 a 11.796324,27.946569 72.856038 0 1 -32.03658,-1.37605068 11.796324,27.946569 72.856038 0 1 20.59672,-19.69724092 11.796324,27.946569 72.856038 0 1 32.03473,1.376722 11.796324,27.946569 72.856038 0 1 -20.59487,19.6965696 z m -2.14545,-3.9521008 a 7.3727018,17.466606 72.856038 0 0 12.87119,-12.3091158 7.3727018,17.466606 72.856038 0 0 -20.02098,-0.861372 7.3727018,17.466606 72.856038 0 0 -12.87212,12.3111722 7.3727018,17.466606 72.856038 0 0 20.02191,0.8593156 z"
         style="opacity:1;fill:#f9a3b2;fill-opacity:1;stroke:none;stroke-width:0.10481989;stroke-linecap:round;stroke-miterlimit:4;stroke-dasharray:none;stroke-opacity:1" />
      <path
         style="fill:#a6f889;fill-opacity:0.74509804;stroke:none;stroke-width:0.07000434px;stroke-linecap:butt;stroke-linejoin:miter;stroke-opacity:1"
         d="M 98.814023,15.929144 131.82041,-5.0959566 139.48887,25.139729 Z"
         id="path5919"
         inkscape:connector-curvature="0" />
      <ellipse
         transform="scale(-1,1)"
         style="opacity:1;fill:#89c4f8;fill-opacity:0.74509804;stroke:none;stroke-width:0.10481989;stroke-linecap:round;stroke-miterlimit:4;stroke-dasharray:none;stroke-opacity:0.70196078"
         id="ellipse5921"
         cx="19.275326"
         cy="-53.982761"
         rx="12.979322"
         ry="10.393307" />
      <path
         style="fill:#89c4f8;fill-opacity:0.74509804;stroke:none;stroke-width:0.07000434px;stroke-linecap:butt;stroke-linejoin:miter;stroke-opacity:1"
         d="m -148.68888,23.659425 33.00639,-21.0251007 7.66845,30.2356867 z"
         id="path5923"
         inkscape:connector-curvature="0" />
      <ellipse
         cy="19.307096"
         cx="-48.390266"
         id="ellipse5925"
         style="opacity:1;fill:#f9a3b2;fill-opacity:1;stroke:none;stroke-width:0.10481989;stroke-linecap:round;stroke-miterlimit:4;stroke-dasharray:none;stroke-opacity:0.70196078"
         rx="12.979322"
         ry="10.393307" />
      <path
         inkscape:connector-curvature="0"
         id="path5927"
         d="m -321.17983,-38.476687 -33.0064,-21.025094 -7.6684,30.23568 z"
         style="fill:#f787a6;fill-opacity:0.74509804;stroke:none;stroke-width:0.07000434px;stroke-linecap:butt;stroke-linejoin:miter;stroke-opacity:1" />
      <ellipse
         ry="10.393307"
         rx="12.979322"
         cy="-3.8241863"
         cx="341.26642"
         id="ellipse5929"
         style="opacity:1;fill:#89c4f8;fill-opacity:0.74509804;stroke:none;stroke-width:0.10481989;stroke-linecap:round;stroke-miterlimit:4;stroke-dasharray:none;stroke-opacity:0.70196078"
         transform="scale(-1,1)" />
      <path
         inkscape:connector-curvature="0"
         id="path5931"
         d="m -284.14723,-11.918162 33.00639,-21.025101 7.66845,30.235686 z"
         style="fill:#89c4f8;fill-opacity:0.74509804;stroke:none;stroke-width:0.07000434px;stroke-linecap:butt;stroke-linejoin:miter;stroke-opacity:1" />
      <ellipse
         ry="10.393307"
         rx="12.979322"
         style="opacity:1;fill:#a6f889;fill-opacity:0.74509804;stroke:none;stroke-width:0.10481989;stroke-linecap:round;stroke-miterlimit:4;stroke-dasharray:none;stroke-opacity:0.70196078"
         id="ellipse5933"
         cx="-282.29648"
         cy="37.387512" />
      <ellipse
         ry="10.393307"
         rx="12.979322"
         cy="-73.85463"
         cx="-285.84177"
         id="ellipse5935"
         style="opacity:1;fill:#f3b28e;fill-opacity:0.74509804;stroke:none;stroke-width:0.10481989;stroke-linecap:round;stroke-miterlimit:4;stroke-dasharray:none;stroke-opacity:0.70196078" />
      <path
         style="fill:#f3b28e;fill-opacity:0.74509804;stroke:none;stroke-width:0.07000434px;stroke-linecap:butt;stroke-linejoin:miter;stroke-opacity:1"
         d="M 97.054507,-72.404393 64.048118,-93.429489 56.379676,-63.193807 Z"
         id="path5937"
         inkscape:connector-curvature="0" />
      <path
         style="fill:#89c4f8;fill-opacity:0.74509804;stroke:none;stroke-width:0.07000434px;stroke-linecap:butt;stroke-linejoin:miter;stroke-opacity:1"
         d="M 91.30467,-21.557064 51.00011,-6.7863883 52.241699,8.8089616 26.582077,30.8017 64.877615,14.295229 62.835727,0.13559622 Z"
         id="path5939"
         inkscape:connector-curvature="0" />
    </g>
    <g
       id="g11144">
      <g
         id="g10991"
         transform="rotate(90,-299.79905,768.67344)">
        <g
           id="g11015">
          <path
             style="fill:#f787a6;fill-opacity:0.74509804;stroke:none;stroke-width:0.07000434px;stroke-linecap:butt;stroke-linejoin:miter;stroke-opacity:1"
             d="m -765.74714,-32.059334 25.84894,-26.525239 -38.55314,-5.283361 z"
             id="path10967"
             inkscape:connector-curvature="0" />
          <ellipse
             transform="matrix(0.03176942,0.99949522,-0.99980534,0.01973003,0,0)"
             style="opacity:1;fill:#89c4f8;fill-opacity:0.74509804;stroke:none;stroke-width:0.10482369;stroke-linecap:round;stroke-miterlimit:4;stroke-dasharray:none;stroke-opacity:0.70196078"
             id="ellipse10969"
             cx="-60.836315"
             cy="721.34833"
             rx="10.228855"
             ry="13.188945" />
          <path
             style="fill:none;stroke:#a7f889;stroke-width:7.18740606;stroke-linecap:round;stroke-linejoin:miter;stroke-miterlimit:4;stroke-dasharray:none;stroke-opacity:0.74509804"
             d="m -690.13348,-53.870272 c 16.5015,14.963617 24.5529,40.316864 31.15344,60.8601345 1.36238,4.2407025 -8.53769,-5.493266 -11.03441,-9.353523 -5.38008,-8.3180105 -14.05713,-21.9991885 -23.05688,-26.0146705 -6.22038,-2.77542 2.19441,11.913808 1.07665,17.758074 -1.0271,5.3696365 -15.02397,-16.179707 -14.64553,-10.743189 0.19044,2.735101 0.32681,4.59547 1.8919,8.818456 8.47548,22.871433 -4.67025,1.586615 -5.68625,3.2222075 -1.9979,3.216302 2.32385,11.276813 -5.13368,6.569927 -9.46882,-5.976438 -8.53248,-3.939619 -14.74476,8.483884"
             id="path10971"
             inkscape:connector-curvature="0" />
          <ellipse
             ry="10.393307"
             rx="12.979322"
             style="opacity:1;fill:#a6f889;fill-opacity:0.74509804;stroke:none;stroke-width:0.10481989;stroke-linecap:round;stroke-miterlimit:4;stroke-dasharray:none;stroke-opacity:0.70196078"
             id="ellipse10973"
             cx="-889.13074"
             cy="-60.894684" />
          <path
             inkscape:connector-curvature="0"
             style="opacity:1;fill:#f6c4a0;fill-opacity:1;stroke:none;stroke-width:0.10481989;stroke-linecap:round;stroke-miterlimit:4;stroke-dasharray:none;stroke-opacity:1"
             d="m -718.879,40.315534 a 11.796324,27.946569 72.856038 0 1 -32.0366,-1.376064 11.796324,27.946569 72.856038 0 1 20.59674,-19.69724 11.796324,27.946569 72.856038 0 1 32.03473,1.376706 11.796324,27.946569 72.856038 0 1 -20.59487,19.696598 z m -2.14547,-3.952144 a 7.3727018,17.466606 72.856038 0 0 12.87115,-12.309131 7.3727018,17.466606 72.856038 0 0 -20.02088,-0.861329 7.3727018,17.466606 72.856038 0 0 -12.87221,12.31113 7.3727018,17.466606 72.856038 0 0 20.02194,0.85933 z"
             id="path10975" />
          <path
             inkscape:connector-curvature="0"
             id="path10977"
             d="m -717.11081,36.831935 a 11.796324,27.946569 72.856038 0 1 -32.03658,-1.376051 11.796324,27.946569 72.856038 0 1 20.59672,-19.697241 11.796324,27.946569 72.856038 0 1 32.03473,1.376722 11.796324,27.946569 72.856038 0 1 -20.59487,19.69657 z m -2.14545,-3.952101 a 7.3727018,17.466606 72.856038 0 0 12.87119,-12.309116 7.3727018,17.466606 72.856038 0 0 -20.02098,-0.861372 7.3727018,17.466606 72.856038 0 0 -12.87212,12.311173 7.3727018,17.466606 72.856038 0 0 20.02191,0.859315 z"
             style="opacity:1;fill:#f9a3b2;fill-opacity:1;stroke:none;stroke-width:0.10481989;stroke-linecap:round;stroke-miterlimit:4;stroke-dasharray:none;stroke-opacity:1" />
          <path
             style="fill:#89c4f8;fill-opacity:0.74509804;stroke:none;stroke-width:0.07000434px;stroke-linecap:butt;stroke-linejoin:miter;stroke-opacity:1"
             d="m -670.399,58.939002 33.00639,-21.0251 7.66845,30.235686 z"
             id="path10979"
             inkscape:connector-curvature="0" />
          <path
             inkscape:connector-curvature="0"
             id="path10981"
             d="m -842.88995,-3.1971095 -33.0064,-21.0250945 -7.6684,30.2356805 z"
             style="fill:#f787a6;fill-opacity:0.74509804;stroke:none;stroke-width:0.07000434px;stroke-linecap:butt;stroke-linejoin:miter;stroke-opacity:1" />
          <ellipse
             ry="10.393307"
             rx="12.979322"
             cy="31.455391"
             cx="862.97656"
             id="ellipse10983"
             style="opacity:1;fill:#89c4f8;fill-opacity:0.74509804;stroke:none;stroke-width:0.10481989;stroke-linecap:round;stroke-miterlimit:4;stroke-dasharray:none;stroke-opacity:0.70196078"
             transform="scale(-1,1)" />
          <path
             inkscape:connector-curvature="0"
             id="path10985"
             d="M -805.85735,23.361415 -772.85096,2.3363145 -765.18251,32.572 Z"
             style="fill:#89c4f8;fill-opacity:0.74509804;stroke:none;stroke-width:0.07000434px;stroke-linecap:butt;stroke-linejoin:miter;stroke-opacity:1" />
          <ellipse
             ry="10.393307"
             rx="12.979322"
             cy="-38.57505"
             cx="-807.55188"
             id="ellipse10989"
             style="opacity:1;fill:#f3b28e;fill-opacity:0.74509804;stroke:none;stroke-width:0.10481989;stroke-linecap:round;stroke-miterlimit:4;stroke-dasharray:none;stroke-opacity:0.70196078" />
        </g>
      </g>
      <g
         id="g11117">
        <path
           transform="translate(-7.4835352,28.33057)"
           inkscape:connector-curvature="0"
           id="path5869-8"
           d="m 425.61087,-88.055864 c 2.33466,-3.1285 3.93195,-10.95056 9.30245,-11.14826 3.79417,-0.13969 -1.19988,22.648554 6.9839,19.534686 4.02387,-1.531069 19.88682,-14.301326 22.35955,-10.832676 5.15722,7.234412 -2.9778,14.11845 1.35539,20.19683 5.12343,7.187031 20.46263,-2.243189 22.74877,-3.794662 2.95631,-2.006307 7.37699,7.987408 7.72391,8.474132 0.37232,0.522269 8.303,-1.728399 9.22204,-1.818176"
           style="fill:none;stroke:#f3b28e;stroke-width:7.84648371;stroke-linecap:round;stroke-linejoin:miter;stroke-miterlimit:4;stroke-dasharray:none;stroke-opacity:0.74509805" />
        <path
           style="fill:#f787a6;fill-opacity:0.74509804;stroke:none;stroke-width:0.07000434px;stroke-linecap:butt;stroke-linejoin:miter;stroke-opacity:1"
           d="M 457.0587,44.20305 430.53346,18.35411 425.2501,56.90725 Z"
           id="path11043"
           inkscape:connector-curvature="0" />
        <ellipse
           transform="matrix(0.99949522,-0.03176942,0.01973003,0.99980534,0,0)"
           style="opacity:1;fill:#89c4f8;fill-opacity:0.74509804;stroke:none;stroke-width:0.10482369;stroke-linecap:round;stroke-miterlimit:4;stroke-dasharray:none;stroke-opacity:0.70196078"
           id="ellipse11045"
           cx="442.45911"
           cy="15.656271"
           rx="10.228855"
           ry="13.188945" />
        <ellipse
           ry="10.393307"
           rx="12.979322"
           style="opacity:1;fill:#a6f889;fill-opacity:0.74509804;stroke:none;stroke-width:0.10481989;stroke-linecap:round;stroke-miterlimit:4;stroke-dasharray:none;stroke-opacity:0.70196078"
           id="ellipse11049"
           cx="-167.58665"
           cy="428.22336"
           transform="rotate(-90)" />
        <path
           inkscape:connector-curvature="0"
           style="opacity:1;fill:#f6c4a0;fill-opacity:1;stroke:none;stroke-width:0.10481989;stroke-linecap:round;stroke-miterlimit:4;stroke-dasharray:none;stroke-opacity:1"
           d="m 529.43356,-2.66509 a 27.946569,11.796324 72.856038 0 1 -1.37606,32.0366 27.946569,11.796324 72.856038 0 1 -19.69724,-20.59674 27.946569,11.796324 72.856038 0 1 1.37671,-32.03473 27.946569,11.796324 72.856038 0 1 19.69659,20.59487 z m -3.95214,2.14547 a 17.466606,7.3727018 72.856038 0 0 -12.30913,-12.87115 17.466606,7.3727018 72.856038 0 0 -0.86133,20.02088 17.466606,7.3727018 72.856038 0 0 12.31113,12.87221 17.466606,7.3727018 72.856038 0 0 0.85933,-20.02194 z"
           id="path11051" />
        <path
           inkscape:connector-curvature="0"
           id="path11053"
           d="m 525.94996,-4.43328 a 27.946569,11.796324 72.856038 0 1 -1.37605,32.03658 27.946569,11.796324 72.856038 0 1 -19.69724,-20.59672 27.946569,11.796324 72.856038 0 1 1.37672,-32.03473 27.946569,11.796324 72.856038 0 1 19.69657,20.59487 z m -3.9521,2.14545 a 17.466606,7.3727018 72.856038 0 0 -12.30911,-12.87119 17.466606,7.3727018 72.856038 0 0 -0.86137,20.02098 17.466606,7.3727018 72.856038 0 0 12.31117,12.87212 17.466606,7.3727018 72.856038 0 0 0.85931,-20.02191 z"
           style="opacity:1;fill:#f9a3b2;fill-opacity:1;stroke:none;stroke-width:0.10481989;stroke-linecap:round;stroke-miterlimit:4;stroke-dasharray:none;stroke-opacity:1" />
        <path
           style="fill:#89c4f8;fill-opacity:0.74509804;stroke:none;stroke-width:0.07000434px;stroke-linecap:butt;stroke-linejoin:miter;stroke-opacity:1"
           d="m 538.53203,-34.21165 -21.0251,-33.00639 30.23568,-7.66845 z"
           id="path11055"
           inkscape:connector-curvature="0" />
        <path
           inkscape:connector-curvature="0"
           id="path11057"
           d="m 485.92092,121.34586 -21.02509,33.0064 30.23568,7.6684 z"
           style="fill:#f787a6;fill-opacity:0.74509804;stroke:none;stroke-width:0.07000434px;stroke-linecap:butt;stroke-linejoin:miter;stroke-opacity:1" />
        <ellipse
           ry="10.393307"
           rx="12.979322"
           cy="520.57343"
           cx="141.43248"
           id="ellipse11059"
           style="opacity:1;fill:#89c4f8;fill-opacity:0.74509804;stroke:none;stroke-width:0.10481989;stroke-linecap:round;stroke-miterlimit:4;stroke-dasharray:none;stroke-opacity:0.70196078"
           transform="matrix(0,1,1,0,0,0)" />
        <path
           inkscape:connector-curvature="0"
           id="path11061"
           d="m 512.47944,84.31326 -21.0251,-33.00639 30.23569,-7.66845 z"
           style="fill:#89c4f8;fill-opacity:0.74509804;stroke:none;stroke-width:0.07000434px;stroke-linecap:butt;stroke-linejoin:miter;stroke-opacity:1" />
        <ellipse
           ry="10.393307"
           rx="12.979322"
           cy="450.54297"
           cx="-86.00779"
           id="ellipse11063"
           style="opacity:1;fill:#f3b28e;fill-opacity:0.74509804;stroke:none;stroke-width:0.10481989;stroke-linecap:round;stroke-miterlimit:4;stroke-dasharray:none;stroke-opacity:0.70196078"
           transform="rotate(-90)" />
      </g>
    </g>
    <g
       id="g11196"
       transform="matrix(-1,0,0,1,34.940129,20.312484)">
      <g
         transform="rotate(90,-299.79905,768.67344)"
         id="g11170">
        <g
           id="g11168">
          <path
             inkscape:connector-curvature="0"
             id="path11146"
             d="m -765.74714,-32.059334 25.84894,-26.525239 -38.55314,-5.283361 z"
             style="fill:#f787a6;fill-opacity:0.74509804;stroke:none;stroke-width:0.07000434px;stroke-linecap:butt;stroke-linejoin:miter;stroke-opacity:1" />
          <ellipse
             ry="13.188945"
             rx="10.228855"
             cy="721.34833"
             cx="-60.836315"
             id="ellipse11148"
             style="opacity:1;fill:#89c4f8;fill-opacity:0.74509804;stroke:none;stroke-width:0.10482369;stroke-linecap:round;stroke-miterlimit:4;stroke-dasharray:none;stroke-opacity:0.70196078"
             transform="matrix(0.03176942,0.99949522,-0.99980534,0.01973003,0,0)" />
          <path
             inkscape:connector-curvature="0"
             id="path11150"
             d="m -690.13348,-53.870272 c 16.5015,14.963617 24.5529,40.316864 31.15344,60.8601345 1.36238,4.2407025 -8.53769,-5.493266 -11.03441,-9.353523 -5.38008,-8.3180105 -14.05713,-21.9991885 -23.05688,-26.0146705 -6.22038,-2.77542 2.19441,11.913808 1.07665,17.758074 -1.0271,5.3696365 -15.02397,-16.179707 -14.64553,-10.743189 0.19044,2.735101 0.32681,4.59547 1.8919,8.818456 8.47548,22.871433 -4.67025,1.586615 -5.68625,3.2222075 -1.9979,3.216302 2.32385,11.276813 -5.13368,6.569927 -9.46882,-5.976438 -8.53248,-3.939619 -14.74476,8.483884"
             style="fill:none;stroke:#a7f889;stroke-width:7.18740606;stroke-linecap:round;stroke-linejoin:miter;stroke-miterlimit:4;stroke-dasharray:none;stroke-opacity:0.74509804" />
          <ellipse
             cy="-60.894684"
             cx="-889.13074"
             id="ellipse11152"
             style="opacity:1;fill:#a6f889;fill-opacity:0.74509804;stroke:none;stroke-width:0.10481989;stroke-linecap:round;stroke-miterlimit:4;stroke-dasharray:none;stroke-opacity:0.70196078"
             rx="12.979322"
             ry="10.393307" />
          <path
             id="path11154"
             d="m -718.879,40.315534 a 11.796324,27.946569 72.856038 0 1 -32.0366,-1.376064 11.796324,27.946569 72.856038 0 1 20.59674,-19.69724 11.796324,27.946569 72.856038 0 1 32.03473,1.376706 11.796324,27.946569 72.856038 0 1 -20.59487,19.696598 z m -2.14547,-3.952144 a 7.3727018,17.466606 72.856038 0 0 12.87115,-12.309131 7.3727018,17.466606 72.856038 0 0 -20.02088,-0.861329 7.3727018,17.466606 72.856038 0 0 -12.87221,12.31113 7.3727018,17.466606 72.856038 0 0 20.02194,0.85933 z"
             style="opacity:1;fill:#f6c4a0;fill-opacity:1;stroke:none;stroke-width:0.10481989;stroke-linecap:round;stroke-miterlimit:4;stroke-dasharray:none;stroke-opacity:1"
             inkscape:connector-curvature="0" />
          <path
             style="opacity:1;fill:#f9a3b2;fill-opacity:1;stroke:none;stroke-width:0.10481989;stroke-linecap:round;stroke-miterlimit:4;stroke-dasharray:none;stroke-opacity:1"
             d="m -717.11081,36.831935 a 11.796324,27.946569 72.856038 0 1 -32.03658,-1.376051 11.796324,27.946569 72.856038 0 1 20.59672,-19.697241 11.796324,27.946569 72.856038 0 1 32.03473,1.376722 11.796324,27.946569 72.856038 0 1 -20.59487,19.69657 z m -2.14545,-3.952101 a 7.3727018,17.466606 72.856038 0 0 12.87119,-12.309116 7.3727018,17.466606 72.856038 0 0 -20.02098,-0.861372 7.3727018,17.466606 72.856038 0 0 -12.87212,12.311173 7.3727018,17.466606 72.856038 0 0 20.02191,0.859315 z"
             id="path11156"
             inkscape:connector-curvature="0" />
          <path
             style="fill:#f787a6;fill-opacity:0.74509804;stroke:none;stroke-width:0.07000434px;stroke-linecap:butt;stroke-linejoin:miter;stroke-opacity:1"
             d="m -842.88995,-3.1971095 -33.0064,-21.0250945 -7.6684,30.2356805 z"
             id="path11160"
             inkscape:connector-curvature="0" />
          <ellipse
             transform="scale(-1,1)"
             style="opacity:1;fill:#89c4f8;fill-opacity:0.74509804;stroke:none;stroke-width:0.10481989;stroke-linecap:round;stroke-miterlimit:4;stroke-dasharray:none;stroke-opacity:0.70196078"
             id="ellipse11162"
             cx="862.97656"
             cy="31.455391"
             rx="12.979322"
             ry="10.393307" />
          <path
             style="fill:#89c4f8;fill-opacity:0.74509804;stroke:none;stroke-width:0.07000434px;stroke-linecap:butt;stroke-linejoin:miter;stroke-opacity:1"
             d="M -805.85735,23.361415 -772.85096,2.3363145 -765.18251,32.572 Z"
             id="path11164"
             inkscape:connector-curvature="0" />
          <ellipse
             style="opacity:1;fill:#f3b28e;fill-opacity:0.74509804;stroke:none;stroke-width:0.10481989;stroke-linecap:round;stroke-miterlimit:4;stroke-dasharray:none;stroke-opacity:0.70196078"
             id="ellipse11166"
             cx="-807.55188"
             cy="-38.57505"
             rx="12.979322"
             ry="10.393307" />
        </g>
      </g>
      <g
         id="g11194">
        <path
           style="fill:none;stroke:#f3b28e;stroke-width:7.84648371;stroke-linecap:round;stroke-linejoin:miter;stroke-miterlimit:4;stroke-dasharray:none;stroke-opacity:0.74509804"
           d="m 425.61087,-88.055864 c 2.33466,-3.1285 3.93195,-10.95056 9.30245,-11.14826 3.79417,-0.13969 -1.19988,22.648554 6.9839,19.534686 4.02387,-1.531069 19.88682,-14.301326 22.35955,-10.832676 5.15722,7.234412 -2.9778,14.11845 1.35539,20.19683 5.12343,7.187031 20.46263,-2.243189 22.74877,-3.794662 2.95631,-2.006307 7.37699,7.987408 7.72391,8.474132 0.37232,0.522269 8.303,-1.728399 9.22204,-1.818176"
           id="path11172"
           inkscape:connector-curvature="0"
           transform="translate(-7.4835352,28.33057)" />
        <path
           inkscape:connector-curvature="0"
           id="path11174"
           d="M 457.0587,44.20305 430.53346,18.35411 425.2501,56.90725 Z"
           style="fill:#f787a6;fill-opacity:0.74509804;stroke:none;stroke-width:0.07000434px;stroke-linecap:butt;stroke-linejoin:miter;stroke-opacity:1" />
        <ellipse
           ry="13.188945"
           rx="10.228855"
           cy="15.656271"
           cx="442.45911"
           id="ellipse11176"
           style="opacity:1;fill:#89c4f8;fill-opacity:0.74509804;stroke:none;stroke-width:0.10482369;stroke-linecap:round;stroke-miterlimit:4;stroke-dasharray:none;stroke-opacity:0.70196078"
           transform="matrix(0.99949522,-0.03176942,0.01973003,0.99980534,0,0)" />
        <ellipse
           transform="rotate(-90)"
           cy="428.22336"
           cx="-167.58665"
           id="ellipse11178"
           style="opacity:1;fill:#a6f889;fill-opacity:0.74509804;stroke:none;stroke-width:0.10481989;stroke-linecap:round;stroke-miterlimit:4;stroke-dasharray:none;stroke-opacity:0.70196078"
           rx="12.979322"
           ry="10.393307" />
        <path
           id="path11180"
           d="m 529.43356,-2.66509 a 27.946569,11.796324 72.856038 0 1 -1.37606,32.0366 27.946569,11.796324 72.856038 0 1 -19.69724,-20.59674 27.946569,11.796324 72.856038 0 1 1.37671,-32.03473 27.946569,11.796324 72.856038 0 1 19.69659,20.59487 z m -3.95214,2.14547 a 17.466606,7.3727018 72.856038 0 0 -12.30913,-12.87115 17.466606,7.3727018 72.856038 0 0 -0.86133,20.02088 17.466606,7.3727018 72.856038 0 0 12.31113,12.87221 17.466606,7.3727018 72.856038 0 0 0.85933,-20.02194 z"
           style="opacity:1;fill:#f6c4a0;fill-opacity:1;stroke:none;stroke-width:0.10481989;stroke-linecap:round;stroke-miterlimit:4;stroke-dasharray:none;stroke-opacity:1"
           inkscape:connector-curvature="0" />
        <path
           style="opacity:1;fill:#f9a3b2;fill-opacity:1;stroke:none;stroke-width:0.10481989;stroke-linecap:round;stroke-miterlimit:4;stroke-dasharray:none;stroke-opacity:1"
           d="m 525.94996,-4.43328 a 27.946569,11.796324 72.856038 0 1 -1.37605,32.03658 27.946569,11.796324 72.856038 0 1 -19.69724,-20.59672 27.946569,11.796324 72.856038 0 1 1.37672,-32.03473 27.946569,11.796324 72.856038 0 1 19.69657,20.59487 z m -3.9521,2.14545 a 17.466606,7.3727018 72.856038 0 0 -12.30911,-12.87119 17.466606,7.3727018 72.856038 0 0 -0.86137,20.02098 17.466606,7.3727018 72.856038 0 0 12.31117,12.87212 17.466606,7.3727018 72.856038 0 0 0.85931,-20.02191 z"
           id="path11182"
           inkscape:connector-curvature="0" />
        <path
           inkscape:connector-curvature="0"
           id="path11184"
           d="m 538.53203,-34.21165 -21.0251,-33.00639 30.23568,-7.66845 z"
           style="fill:#89c4f8;fill-opacity:0.74509804;stroke:none;stroke-width:0.07000434px;stroke-linecap:butt;stroke-linejoin:miter;stroke-opacity:1" />
        <path
           style="fill:#f787a6;fill-opacity:0.74509804;stroke:none;stroke-width:0.07000434px;stroke-linecap:butt;stroke-linejoin:miter;stroke-opacity:1"
           d="m 485.92092,121.34586 -21.02509,33.0064 30.23568,7.6684 z"
           id="path11186"
           inkscape:connector-curvature="0" />
        <ellipse
           transform="matrix(0,1,1,0,0,0)"
           style="opacity:1;fill:#89c4f8;fill-opacity:0.74509804;stroke:none;stroke-width:0.10481989;stroke-linecap:round;stroke-miterlimit:4;stroke-dasharray:none;stroke-opacity:0.70196078"
           id="ellipse11188"
           cx="141.43248"
           cy="520.57343"
           rx="12.979322"
           ry="10.393307" />
        <path
           style="fill:#89c4f8;fill-opacity:0.74509804;stroke:none;stroke-width:0.07000434px;stroke-linecap:butt;stroke-linejoin:miter;stroke-opacity:1"
           d="m 512.47944,84.31326 -21.0251,-33.00639 30.23569,-7.66845 z"
           id="path11190"
           inkscape:connector-curvature="0" />
        <ellipse
           transform="rotate(-90)"
           style="opacity:1;fill:#f3b28e;fill-opacity:0.74509804;stroke:none;stroke-width:0.10481989;stroke-linecap:round;stroke-miterlimit:4;stroke-dasharray:none;stroke-opacity:0.70196078"
           id="ellipse11192"
           cx="-86.00779"
           cy="450.54297"
           rx="12.979322"
           ry="10.393307" />
      </g>
    </g>
  </g>
</svg>
